<svg xmlns="http://www.w3.org/2000/svg" width="479" height="237" viewBox="0 0 479 237" version="1.1"><path d="M 118.400 41.400 C 116.530 43.270, 115.002 45.407, 115.004 46.150 C 115.006 46.892, 115.883 46.064, 116.954 44.308 C 118.024 42.553, 120.160 40.433, 121.700 39.598 C 123.240 38.763, 123.892 38.062, 123.150 38.040 C 122.407 38.018, 120.270 39.530, 118.400 41.400 M 138.704 41.232 C 139.286 44.279, 141.334 46.389, 143.128 45.791 C 143.867 45.544, 143.154 44.084, 141.255 41.959 C 138.191 38.530, 138.187 38.529, 138.704 41.232 M 328.411 42.527 C 325.443 46.419, 325.456 47.602, 328.443 45.418 C 329.509 44.638, 330.019 44, 329.576 44 C 329.133 44, 329.507 42.875, 330.408 41.500 C 332.842 37.786, 331.502 38.475, 328.411 42.527 M 351 41.500 C 352.292 42.875, 353.574 44, 353.849 44 C 354.124 44, 353.292 42.875, 352 41.500 C 350.708 40.125, 349.426 39, 349.151 39 C 348.876 39, 349.708 40.125, 351 41.500 M 355.474 118.500 C 355.474 157.550, 355.598 173.671, 355.750 154.323 C 355.901 134.976, 355.901 103.026, 355.750 83.323 C 355.598 63.621, 355.474 79.450, 355.474 118.500 M 114.473 118.500 C 114.474 157, 114.598 172.605, 114.750 153.177 C 114.902 133.749, 114.901 102.249, 114.749 83.177 C 114.598 64.105, 114.473 80, 114.473 118.500 M 387 53.500 C 388.292 54.875, 389.574 56, 389.849 56 C 390.124 56, 389.292 54.875, 388 53.500 C 386.708 52.125, 385.426 51, 385.151 51 C 384.876 51, 385.708 52.125, 387 53.500 M 241.306 55.573 L 238.500 58.146 241.750 55.885 C 243.537 54.641, 245 53.484, 245 53.312 C 245 52.523, 243.894 53.200, 241.306 55.573 M 169 60.500 C 166.571 62.975, 164.809 65, 165.084 65 C 165.359 65, 167.571 62.975, 170 60.500 C 172.429 58.025, 174.191 56, 173.916 56 C 173.641 56, 171.429 58.025, 169 60.500 M 232.722 59.050 C 233.944 60.337, 235.138 61.189, 235.374 60.944 C 235.611 60.700, 234.611 59.648, 233.152 58.606 L 230.500 56.712 232.722 59.050 M 361.469 118.500 C 361.469 151.500, 361.596 164.855, 361.750 148.178 C 361.904 131.501, 361.903 104.501, 361.749 88.178 C 361.595 71.855, 361.469 85.500, 361.469 118.500 M 391.469 118.500 C 391.469 150.950, 391.595 164.080, 391.750 147.678 C 391.904 131.277, 391.904 104.727, 391.749 88.678 C 391.595 72.630, 391.469 86.050, 391.469 118.500 M 78.468 118.500 C 78.468 150.400, 78.595 163.595, 78.749 147.821 C 78.904 132.048, 78.904 105.948, 78.750 89.821 C 78.595 73.695, 78.468 86.600, 78.468 118.500 M 187.441 65.555 C 185.611 67.022, 185.643 67.042, 188 65.920 C 191.061 64.462, 191.628 64, 190.358 64 C 189.821 64, 188.509 64.700, 187.441 65.555 M 163.278 67.250 C 161.779 69.188, 160.836 71, 161.326 71 C 161.570 71, 162.507 69.875, 163.408 68.500 C 165.094 65.927, 165 65.024, 163.278 67.250 M 69 69.500 C 70.292 70.875, 71.574 72, 71.849 72 C 72.124 72, 71.292 70.875, 70 69.500 C 68.708 68.125, 67.426 67, 67.151 67 C 66.876 67, 67.708 68.125, 69 69.500 M 419 69.500 C 420.292 70.875, 421.574 72, 421.849 72 C 422.124 72, 421.292 70.875, 420 69.500 C 418.708 68.125, 417.426 67, 417.151 67 C 416.876 67, 417.708 68.125, 419 69.500 M 245.946 71.750 L 242.500 75.500 246.250 72.054 C 248.313 70.158, 250 68.471, 250 68.304 C 250 67.540, 249.154 68.260, 245.946 71.750 M 171.195 88.500 C 171.215 90.150, 171.439 90.704, 171.693 89.731 C 171.947 88.758, 171.930 87.408, 171.656 86.731 C 171.382 86.054, 171.175 86.850, 171.195 88.500 M 314.252 93.500 C 314.263 95.700, 314.468 96.482, 314.707 95.238 C 314.946 93.994, 314.937 92.194, 314.687 91.238 C 314.437 90.282, 314.241 91.300, 314.252 93.500 M 171.195 97.500 C 171.215 99.150, 171.439 99.704, 171.693 98.731 C 171.947 97.758, 171.930 96.408, 171.656 95.731 C 171.382 95.054, 171.175 95.850, 171.195 97.500 M 156 100.950 C 156 102.616, 155.161 102.953, 150.250 103.261 L 144.500 103.622 150.750 103.811 C 156.800 103.994, 157 103.920, 157 101.500 C 157 100.125, 156.775 99, 156.500 99 C 156.225 99, 156 99.878, 156 100.950 M 313.015 102.250 C 313.002 103.722, 313.944 104, 318.941 104 C 322.209 104, 325.092 103.662, 325.348 103.250 C 325.604 102.838, 323.322 102.658, 320.278 102.850 C 316.406 103.095, 314.485 102.794, 313.886 101.850 C 313.223 100.804, 313.027 100.893, 313.015 102.250 M 43.269 103.693 C 44.242 103.947, 45.592 103.930, 46.269 103.656 C 46.946 103.382, 46.150 103.175, 44.500 103.195 C 42.850 103.215, 42.296 103.439, 43.269 103.693 M 424.269 103.693 C 425.242 103.947, 426.592 103.930, 427.269 103.656 C 427.946 103.382, 427.150 103.175, 425.500 103.195 C 423.850 103.215, 423.296 103.439, 424.269 103.693 M 173 104.642 C 173 105.179, 173.700 106.491, 174.555 107.559 C 176.022 109.389, 176.042 109.357, 174.920 107 C 173.462 103.939, 173 103.372, 173 104.642 M 286.966 117.750 L 281.500 123.500 287.250 118.034 C 290.413 115.028, 293 112.440, 293 112.284 C 293 111.542, 292.044 112.408, 286.966 117.750 M 185.500 121 C 188.766 124.300, 191.662 127, 191.937 127 C 192.212 127, 189.766 124.300, 186.500 121 C 183.234 117.700, 180.338 115, 180.063 115 C 179.788 115, 182.234 117.700, 185.500 121 M 437.086 128.382 L 434.672 131.500 437.533 128.780 C 439.106 127.284, 440.193 125.881, 439.947 125.662 C 439.701 125.443, 438.414 126.667, 437.086 128.382 M 269.971 135.750 L 263.500 142.500 270.250 136.029 C 276.520 130.018, 277.457 129, 276.721 129 C 276.568 129, 273.530 132.037, 269.971 135.750 M 202 138.500 C 205.543 142.075, 208.667 145, 208.942 145 C 209.217 145, 206.543 142.075, 203 138.500 C 199.457 134.925, 196.333 132, 196.058 132 C 195.783 132, 198.457 134.925, 202 138.500 M 42.250 133.689 C 43.212 133.941, 44.788 133.941, 45.750 133.689 C 46.712 133.438, 45.925 133.232, 44 133.232 C 42.075 133.232, 41.288 133.438, 42.250 133.689 M 424.269 133.693 C 425.242 133.947, 426.592 133.930, 427.269 133.656 C 427.946 133.382, 427.150 133.175, 425.500 133.195 C 423.850 133.215, 423.296 133.439, 424.269 133.693 M 288.453 138.250 L 284.500 142.500 288.750 138.547 C 292.702 134.871, 293.460 134, 292.703 134 C 292.540 134, 290.627 135.912, 288.453 138.250 M 183.500 141 C 186.766 144.300, 189.662 147, 189.937 147 C 190.212 147, 187.766 144.300, 184.500 141 C 181.234 137.700, 178.338 135, 178.063 135 C 177.788 135, 180.234 137.700, 183.500 141 M 253.469 153.250 L 247.500 159.500 253.750 153.531 C 259.556 147.987, 260.458 147, 259.719 147 C 259.564 147, 256.751 149.813, 253.469 153.250 M 274.453 153.250 L 270.500 157.500 274.750 153.547 C 278.702 149.871, 279.460 149, 278.703 149 C 278.540 149, 276.627 150.912, 274.453 153.250 M 219.500 157 C 223.320 160.850, 226.671 164, 226.946 164 C 227.221 164, 224.320 160.850, 220.500 157 C 216.680 153.150, 213.329 150, 213.054 150 C 212.779 150, 215.680 153.150, 219.500 157 M 198.500 157 C 201.209 159.750, 203.650 162, 203.925 162 C 204.200 162, 202.209 159.750, 199.500 157 C 196.791 154.250, 194.350 152, 194.075 152 C 193.800 152, 195.791 154.250, 198.500 157 M 48 164.659 C 48 165.205, 49.237 166.742, 50.750 168.076 L 53.500 170.500 51 167.500 C 49.625 165.850, 48.388 164.313, 48.250 164.083 C 48.112 163.854, 48 164.113, 48 164.659 M 239.277 168.193 L 235.084 172.386 232.792 170.480 L 230.500 168.574 232.757 171.017 L 235.015 173.459 239.744 168.730 C 242.345 166.128, 244.248 164, 243.972 164 C 243.696 164, 241.584 165.887, 239.277 168.193 M 258.469 170.250 L 252.500 176.500 258.750 170.531 C 264.556 164.987, 265.458 164, 264.719 164 C 264.564 164, 261.751 166.813, 258.469 170.250 M 215 174.500 C 217.987 177.525, 220.657 180, 220.932 180 C 221.207 180, 218.987 177.525, 216 174.500 C 213.013 171.475, 210.343 169, 210.068 169 C 209.793 169, 212.013 171.475, 215 174.500 M 409.269 171.693 C 410.242 171.947, 411.592 171.930, 412.269 171.656 C 412.946 171.382, 412.150 171.175, 410.500 171.195 C 408.850 171.215, 408.296 171.439, 409.269 171.693 M 80 180.659 C 80 181.205, 81.237 182.742, 82.750 184.076 L 85.500 186.500 83 183.500 C 81.625 181.850, 80.388 180.313, 80.250 180.083 C 80.112 179.854, 80 180.113, 80 180.659 M 244.946 184.750 L 241.500 188.500 245.250 185.054 C 248.740 181.846, 249.460 181, 248.696 181 C 248.529 181, 246.842 182.688, 244.946 184.750 M 325 187.050 C 325 188.892, 328.806 195.597, 330.677 197.050 C 332.426 198.408, 332.429 198.381, 330.750 196.404 C 329.788 195.270, 329 193.240, 329 191.894 C 329 190.547, 328.100 188.674, 327 187.732 C 325.900 186.790, 325 186.483, 325 187.050 M 142 189 C 139.847 191.153, 139.385 193, 141 193 C 142.661 193, 143.447 192.552, 143.631 191.500 C 143.728 190.950, 144.123 189.713, 144.510 188.750 C 145.440 186.437, 144.465 186.535, 142 189 M 115.030 190.734 C 115.014 191.413, 116.237 193.235, 117.750 194.782 C 119.263 196.330, 119.774 196.675, 118.887 195.548 C 117.999 194.422, 116.775 192.600, 116.167 191.500 C 115.559 190.400, 115.047 190.055, 115.030 190.734 M 350.924 195.750 L 348.500 198.500 351.250 196.076 C 352.762 194.742, 354 193.505, 354 193.326 C 354 192.541, 353.190 193.180, 350.924 195.750" stroke="none" fill="#6c6c6c" fill-rule="evenodd"/><path d="M 126.500 37.968 C 121.797 39.041, 119.054 40.864, 116.950 44.314 C 115.075 47.390, 115.007 49.957, 115.007 118.500 C 115.007 187.115, 115.073 189.607, 116.956 192.696 C 120.490 198.492, 126.930 200.939, 133.666 199.044 C 138.497 197.685, 142.914 194.183, 141.163 193.101 C 139.588 192.127, 140.681 189.241, 143.118 187.937 C 144.888 186.990, 145 185.355, 145 160.465 L 145 134 161.336 134 L 177.672 134 184.086 140.756 C 189.724 146.695, 211.684 170.063, 225.187 184.491 C 229.630 189.238, 230.141 189.500, 234.987 189.500 C 240.802 189.500, 238.087 191.925, 268.566 159.500 C 276.838 150.700, 285.607 141.375, 288.053 138.778 L 292.500 134.056 308.814 133.875 L 325.128 133.695 325.034 159.831 C 324.943 184.921, 325.021 186.037, 326.970 187.706 C 328.086 188.662, 329 190.662, 329 192.150 C 329 195.441, 332.573 198.510, 337.476 199.430 C 342.742 200.417, 348.377 198.474, 351.909 194.451 L 355 190.930 355 118.451 L 355 45.971 351.750 42.432 C 347.939 38.283, 342.445 36.665, 336.616 37.975 C 332.539 38.891, 330.349 40.498, 329.816 42.965 C 329.642 43.771, 328.600 45.193, 327.500 46.126 C 325.600 47.737, 325.488 49.211, 325.261 75.661 L 325.022 103.500 319.261 103.791 L 313.500 104.082 313.468 93.291 C 313.442 84.428, 313.026 81.470, 311.141 76.736 C 302.615 55.327, 279.290 42.910, 258.044 48.471 C 250.214 50.521, 247.090 52.046, 240.206 57.182 L 234.913 61.131 231.419 58.063 C 224.276 51.791, 211.399 47, 201.684 47 C 189.853 47, 179.062 51.721, 169.929 60.892 C 159.652 71.211, 155.102 83.425, 156.386 97.242 L 157.014 104 151.007 104 L 145 104 145 78.125 C 145 63.894, 144.737 50.934, 144.415 49.326 C 144.083 47.663, 142.896 45.991, 141.665 45.451 C 140.474 44.928, 139.356 43.487, 139.180 42.248 C 138.676 38.696, 132.478 36.605, 126.500 37.968 M 89.119 49.972 C 87.259 50.428, 84.334 52.204, 82.619 53.919 L 79.500 57.038 79.241 117.269 C 78.990 175.595, 79.044 177.601, 80.943 180.696 C 83.956 185.604, 87.544 187.469, 93.931 187.448 C 100.632 187.425, 104.286 185.320, 107.058 179.887 C 108.914 176.249, 109 173.543, 109 119.060 C 109 69.112, 108.801 61.544, 107.399 58.039 C 104.808 51.563, 96.888 48.068, 89.119 49.972 M 371.500 50.102 C 367.918 51.202, 365.993 52.652, 363.704 55.973 C 362.145 58.234, 362 63.544, 362 118.318 C 362 171.949, 362.171 178.480, 363.636 180.960 C 367.585 187.645, 378.493 189.656, 385.355 184.964 C 387.337 183.609, 389.428 181.369, 390.003 179.987 C 390.699 178.311, 390.955 157.440, 390.773 117.302 L 390.500 57.130 387.557 54.059 C 384.812 51.194, 379.469 48.900, 376 49.096 C 375.175 49.142, 373.150 49.595, 371.500 50.102 M 192.340 63.375 C 184.529 65.930, 177.754 71.989, 173.749 80 C 170.500 86.501, 170.535 99.541, 173.820 106.211 C 175.310 109.236, 185.507 120.864, 202.320 138.713 C 216.719 153.998, 229.956 168.078, 231.736 170.001 L 234.972 173.499 238.844 169.499 C 240.974 167.300, 254.285 153.218, 268.424 138.208 C 297.711 107.115, 298.980 105.237, 298.980 93 C 298.980 83.895, 296.276 77.276, 289.985 70.985 C 283.617 64.617, 278.167 62.519, 268 62.522 C 261.116 62.524, 258.697 62.951, 255.278 64.768 C 248.579 68.328, 244.174 72.785, 239.555 80.677 C 234.839 88.733, 235.159 88.739, 230.544 80.500 C 224.044 68.896, 215.124 62.910, 203.500 62.351 C 199.370 62.152, 194.794 62.572, 192.340 63.375 M 54.096 67.208 C 52.774 67.918, 50.749 69.769, 49.596 71.321 C 47.731 73.831, 47.462 75.790, 47.158 89.071 L 46.817 104 43.658 104.002 C 39.527 104.004, 34.156 106.800, 31.607 110.275 C 28.788 114.119, 28.788 122.881, 31.607 126.725 C 34.176 130.227, 39.535 132.996, 43.750 132.998 L 47 133 47 146.532 C 47 165.301, 49.212 169.834, 58.824 170.757 C 64.969 171.348, 69.161 169.287, 71.395 164.579 C 72.885 161.441, 73.031 156.420, 72.780 117.053 L 72.500 73.037 69.343 69.881 C 66.870 67.409, 65.136 66.637, 61.343 66.320 C 58.518 66.084, 55.498 66.454, 54.096 67.208 M 404.096 67.208 C 402.774 67.918, 400.749 69.770, 399.596 71.322 C 397.556 74.069, 397.492 75.284, 397.214 116.822 C 396.970 153.272, 397.153 160.089, 398.465 163.535 C 401.080 170.404, 408.558 172.883, 416.568 169.536 C 421.940 167.291, 423 163.604, 423 147.159 L 423 133.254 428.033 132.771 C 442.370 131.393, 445.879 112.232, 432.980 105.752 C 431.066 104.790, 428.078 104.002, 426.340 104.002 L 423.179 104 422.840 88.517 L 422.500 73.035 419.343 69.880 C 416.871 67.409, 415.135 66.637, 411.343 66.320 C 408.518 66.084, 405.498 66.454, 404.096 67.208" stroke="none" fill="#3d3d3d" fill-rule="evenodd"/></svg>